<svg width="110" height="44" viewBox="0 0 110 44" fill="none" xmlns="http://www.w3.org/2000/svg">
<path id="Arrow 1" d="M34.1652 15.9296L34.5725 15.0163L34.0326 14.7755L33.5613 15.1325L34.1652 15.9296ZM0.174052 40.7928C0.0985842 41.3399 0.48092 41.8446 1.02802 41.9201L9.9436 43.1499C10.4907 43.2254 10.9954 42.843 11.0709 42.2959C11.1463 41.7488 10.764 41.2441 10.2169 41.1686L2.29194 40.0755L3.38511 32.1505C3.46058 31.6034 3.07824 31.0987 2.53114 31.0232C1.98404 30.9478 1.47934 31.3301 1.40387 31.8772L0.174052 40.7928ZM71.1651 32.4296L70.7578 33.3429L71.3242 33.5955L71.8022 33.2003L71.1651 32.4296ZM33.5613 15.1325L0.56082 40.1323L1.76852 41.7265L34.769 16.7267L33.5613 15.1325ZM108.028 0.65884L70.5279 31.6589L71.8022 33.2003L109.302 2.20032L108.028 0.65884ZM71.5723 31.5163L34.5725 15.0163L33.7579 16.8429L70.7578 33.3429L71.5723 31.5163Z" fill="white"/>
</svg>
